<mxfile host="app.diagrams.net" agent="Mozilla/5.0 (Windows NT 10.0; Win64; x64) AppleWebKit/537.36 (KHTML, like Gecko) Chrome/134.0.0.0 Safari/537.36 Edg/134.0.0.0" version="26.1.1">
  <diagram name="第 1 页" id="7dozvBvQt8dywPDQcPjt">
    <mxGraphModel dx="1678" dy="928" grid="1" gridSize="10" guides="1" tooltips="1" connect="1" arrows="1" fold="1" page="1" pageScale="1" pageWidth="1600" pageHeight="900" math="0" shadow="0">
      <root>
        <mxCell id="0" />
        <mxCell id="1" parent="0" />
        <mxCell id="7EEdeznbNVHkcVCXxvmR-1" value="" style="rounded=0;whiteSpace=wrap;html=1;fillColor=#e1d5e7;strokeColor=#9673a6;" parent="1" vertex="1">
          <mxGeometry x="460" y="160" width="40" height="40" as="geometry" />
        </mxCell>
        <mxCell id="7EEdeznbNVHkcVCXxvmR-2" value="" style="rounded=0;whiteSpace=wrap;html=1;fillColor=#e1d5e7;strokeColor=#9673a6;" parent="1" vertex="1">
          <mxGeometry x="500" y="160" width="40" height="40" as="geometry" />
        </mxCell>
        <mxCell id="7EEdeznbNVHkcVCXxvmR-3" value="" style="rounded=0;whiteSpace=wrap;html=1;fillColor=#e1d5e7;strokeColor=#9673a6;" parent="1" vertex="1">
          <mxGeometry x="540" y="160" width="40" height="40" as="geometry" />
        </mxCell>
        <mxCell id="7EEdeznbNVHkcVCXxvmR-4" value="" style="rounded=0;whiteSpace=wrap;html=1;fillColor=#e1d5e7;strokeColor=#9673a6;" parent="1" vertex="1">
          <mxGeometry x="580" y="160" width="40" height="40" as="geometry" />
        </mxCell>
        <mxCell id="7EEdeznbNVHkcVCXxvmR-5" value="" style="rounded=0;whiteSpace=wrap;html=1;fillColor=#e1d5e7;strokeColor=#9673a6;" parent="1" vertex="1">
          <mxGeometry x="620" y="160" width="40" height="40" as="geometry" />
        </mxCell>
        <mxCell id="7EEdeznbNVHkcVCXxvmR-6" value="" style="rounded=0;whiteSpace=wrap;html=1;fillColor=#e1d5e7;strokeColor=#9673a6;" parent="1" vertex="1">
          <mxGeometry x="660" y="160" width="40" height="40" as="geometry" />
        </mxCell>
        <mxCell id="7EEdeznbNVHkcVCXxvmR-7" value="" style="rounded=0;whiteSpace=wrap;html=1;fillColor=#e1d5e7;strokeColor=#9673a6;" parent="1" vertex="1">
          <mxGeometry x="700" y="160" width="40" height="40" as="geometry" />
        </mxCell>
        <mxCell id="7EEdeznbNVHkcVCXxvmR-8" value="" style="rounded=0;whiteSpace=wrap;html=1;fillColor=#e1d5e7;strokeColor=#9673a6;" parent="1" vertex="1">
          <mxGeometry x="740" y="160" width="40" height="40" as="geometry" />
        </mxCell>
        <mxCell id="7EEdeznbNVHkcVCXxvmR-9" value="" style="rounded=0;whiteSpace=wrap;html=1;fillColor=#dae8fc;strokeColor=#6c8ebf;" parent="1" vertex="1">
          <mxGeometry x="140" y="240" width="80" height="40" as="geometry" />
        </mxCell>
        <mxCell id="7EEdeznbNVHkcVCXxvmR-10" value="" style="rounded=0;whiteSpace=wrap;html=1;fillColor=#e1d5e7;strokeColor=#9673a6;" parent="1" vertex="1">
          <mxGeometry x="780" y="160" width="40" height="40" as="geometry" />
        </mxCell>
        <mxCell id="7EEdeznbNVHkcVCXxvmR-11" value="" style="rounded=0;whiteSpace=wrap;html=1;fillColor=#e1d5e7;strokeColor=#9673a6;" parent="1" vertex="1">
          <mxGeometry x="820" y="160" width="40" height="40" as="geometry" />
        </mxCell>
        <mxCell id="7EEdeznbNVHkcVCXxvmR-12" value="" style="rounded=0;whiteSpace=wrap;html=1;fillColor=#e1d5e7;strokeColor=#9673a6;" parent="1" vertex="1">
          <mxGeometry x="860" y="160" width="40" height="40" as="geometry" />
        </mxCell>
        <mxCell id="7EEdeznbNVHkcVCXxvmR-13" value="" style="rounded=0;whiteSpace=wrap;html=1;fillColor=#e1d5e7;strokeColor=#9673a6;" parent="1" vertex="1">
          <mxGeometry x="900" y="160" width="40" height="40" as="geometry" />
        </mxCell>
        <mxCell id="7EEdeznbNVHkcVCXxvmR-14" value="" style="rounded=0;whiteSpace=wrap;html=1;fillColor=#e1d5e7;strokeColor=#9673a6;" parent="1" vertex="1">
          <mxGeometry x="940" y="160" width="40" height="40" as="geometry" />
        </mxCell>
        <mxCell id="7EEdeznbNVHkcVCXxvmR-15" value="" style="rounded=0;whiteSpace=wrap;html=1;fillColor=#e1d5e7;strokeColor=#9673a6;" parent="1" vertex="1">
          <mxGeometry x="980" y="160" width="40" height="40" as="geometry" />
        </mxCell>
        <mxCell id="7EEdeznbNVHkcVCXxvmR-16" value="" style="rounded=0;whiteSpace=wrap;html=1;fillColor=#e1d5e7;strokeColor=#9673a6;" parent="1" vertex="1">
          <mxGeometry x="1020" y="160" width="40" height="40" as="geometry" />
        </mxCell>
        <mxCell id="7EEdeznbNVHkcVCXxvmR-17" value="" style="rounded=0;whiteSpace=wrap;html=1;fillColor=#e1d5e7;strokeColor=#9673a6;" parent="1" vertex="1">
          <mxGeometry x="1060" y="160" width="40" height="40" as="geometry" />
        </mxCell>
        <mxCell id="7EEdeznbNVHkcVCXxvmR-18" value="" style="rounded=0;whiteSpace=wrap;html=1;fillColor=#e1d5e7;strokeColor=#9673a6;" parent="1" vertex="1">
          <mxGeometry x="140" y="160" width="40" height="40" as="geometry" />
        </mxCell>
        <mxCell id="7EEdeznbNVHkcVCXxvmR-19" value="" style="rounded=0;whiteSpace=wrap;html=1;fillColor=#e1d5e7;strokeColor=#9673a6;" parent="1" vertex="1">
          <mxGeometry x="180" y="160" width="40" height="40" as="geometry" />
        </mxCell>
        <mxCell id="7EEdeznbNVHkcVCXxvmR-20" value="" style="rounded=0;whiteSpace=wrap;html=1;fillColor=#e1d5e7;strokeColor=#9673a6;" parent="1" vertex="1">
          <mxGeometry x="220" y="160" width="40" height="40" as="geometry" />
        </mxCell>
        <mxCell id="7EEdeznbNVHkcVCXxvmR-21" value="" style="rounded=0;whiteSpace=wrap;html=1;fillColor=#e1d5e7;strokeColor=#9673a6;" parent="1" vertex="1">
          <mxGeometry x="260" y="160" width="40" height="40" as="geometry" />
        </mxCell>
        <mxCell id="7EEdeznbNVHkcVCXxvmR-22" value="" style="rounded=0;whiteSpace=wrap;html=1;fillColor=#e1d5e7;strokeColor=#9673a6;" parent="1" vertex="1">
          <mxGeometry x="300" y="160" width="40" height="40" as="geometry" />
        </mxCell>
        <mxCell id="7EEdeznbNVHkcVCXxvmR-23" value="" style="rounded=0;whiteSpace=wrap;html=1;fillColor=#e1d5e7;strokeColor=#9673a6;" parent="1" vertex="1">
          <mxGeometry x="340" y="160" width="40" height="40" as="geometry" />
        </mxCell>
        <mxCell id="7EEdeznbNVHkcVCXxvmR-24" value="" style="rounded=0;whiteSpace=wrap;html=1;fillColor=#e1d5e7;strokeColor=#9673a6;" parent="1" vertex="1">
          <mxGeometry x="380" y="160" width="40" height="40" as="geometry" />
        </mxCell>
        <mxCell id="7EEdeznbNVHkcVCXxvmR-25" value="" style="rounded=0;whiteSpace=wrap;html=1;fillColor=#e1d5e7;strokeColor=#9673a6;" parent="1" vertex="1">
          <mxGeometry x="420" y="160" width="40" height="40" as="geometry" />
        </mxCell>
        <mxCell id="7EEdeznbNVHkcVCXxvmR-26" value="" style="rounded=0;whiteSpace=wrap;html=1;fillColor=#dae8fc;strokeColor=#6c8ebf;" parent="1" vertex="1">
          <mxGeometry x="220" y="240" width="80" height="40" as="geometry" />
        </mxCell>
        <mxCell id="7EEdeznbNVHkcVCXxvmR-29" value="" style="rounded=0;whiteSpace=wrap;html=1;fillColor=#dae8fc;strokeColor=#6c8ebf;" parent="1" vertex="1">
          <mxGeometry x="300" y="240" width="80" height="40" as="geometry" />
        </mxCell>
        <mxCell id="7EEdeznbNVHkcVCXxvmR-30" value="" style="rounded=0;whiteSpace=wrap;html=1;fillColor=#dae8fc;strokeColor=#6c8ebf;" parent="1" vertex="1">
          <mxGeometry x="380" y="240" width="80" height="40" as="geometry" />
        </mxCell>
        <mxCell id="7EEdeznbNVHkcVCXxvmR-31" value="" style="rounded=0;whiteSpace=wrap;html=1;fillColor=#dae8fc;strokeColor=#6c8ebf;" parent="1" vertex="1">
          <mxGeometry x="460" y="240" width="80" height="40" as="geometry" />
        </mxCell>
        <mxCell id="7EEdeznbNVHkcVCXxvmR-32" value="" style="rounded=0;whiteSpace=wrap;html=1;fillColor=#dae8fc;strokeColor=#6c8ebf;" parent="1" vertex="1">
          <mxGeometry x="540" y="240" width="80" height="40" as="geometry" />
        </mxCell>
        <mxCell id="7EEdeznbNVHkcVCXxvmR-33" value="" style="rounded=0;whiteSpace=wrap;html=1;fillColor=#dae8fc;strokeColor=#6c8ebf;" parent="1" vertex="1">
          <mxGeometry x="620" y="240" width="80" height="40" as="geometry" />
        </mxCell>
        <mxCell id="7EEdeznbNVHkcVCXxvmR-34" value="" style="rounded=0;whiteSpace=wrap;html=1;fillColor=#dae8fc;strokeColor=#6c8ebf;" parent="1" vertex="1">
          <mxGeometry x="700" y="240" width="80" height="40" as="geometry" />
        </mxCell>
        <mxCell id="7EEdeznbNVHkcVCXxvmR-35" value="" style="rounded=0;whiteSpace=wrap;html=1;fillColor=#dae8fc;strokeColor=#6c8ebf;" parent="1" vertex="1">
          <mxGeometry x="780" y="240" width="80" height="40" as="geometry" />
        </mxCell>
        <mxCell id="7EEdeznbNVHkcVCXxvmR-36" value="" style="rounded=0;whiteSpace=wrap;html=1;fillColor=#dae8fc;strokeColor=#6c8ebf;" parent="1" vertex="1">
          <mxGeometry x="860" y="240" width="80" height="40" as="geometry" />
        </mxCell>
        <mxCell id="7EEdeznbNVHkcVCXxvmR-37" value="" style="rounded=0;whiteSpace=wrap;html=1;fillColor=#dae8fc;strokeColor=#6c8ebf;" parent="1" vertex="1">
          <mxGeometry x="940" y="240" width="80" height="40" as="geometry" />
        </mxCell>
        <mxCell id="7EEdeznbNVHkcVCXxvmR-38" value="" style="rounded=0;whiteSpace=wrap;html=1;fillColor=#dae8fc;strokeColor=#6c8ebf;" parent="1" vertex="1">
          <mxGeometry x="1020" y="240" width="80" height="40" as="geometry" />
        </mxCell>
        <mxCell id="7EEdeznbNVHkcVCXxvmR-39" value="" style="rounded=0;whiteSpace=wrap;html=1;fillColor=#b0e3e6;strokeColor=#0e8088;" parent="1" vertex="1">
          <mxGeometry x="140" y="320" width="160" height="40" as="geometry" />
        </mxCell>
        <mxCell id="7EEdeznbNVHkcVCXxvmR-40" value="" style="rounded=0;whiteSpace=wrap;html=1;fillColor=#b0e3e6;strokeColor=#0e8088;" parent="1" vertex="1">
          <mxGeometry x="300" y="320" width="160" height="40" as="geometry" />
        </mxCell>
        <mxCell id="7EEdeznbNVHkcVCXxvmR-41" value="" style="rounded=0;whiteSpace=wrap;html=1;fillColor=#b0e3e6;strokeColor=#0e8088;" parent="1" vertex="1">
          <mxGeometry x="460" y="320" width="160" height="40" as="geometry" />
        </mxCell>
        <mxCell id="7EEdeznbNVHkcVCXxvmR-42" value="" style="rounded=0;whiteSpace=wrap;html=1;fillColor=#b0e3e6;strokeColor=#0e8088;" parent="1" vertex="1">
          <mxGeometry x="620" y="320" width="160" height="40" as="geometry" />
        </mxCell>
        <mxCell id="7EEdeznbNVHkcVCXxvmR-43" value="" style="rounded=0;whiteSpace=wrap;html=1;fillColor=#b0e3e6;strokeColor=#0e8088;" parent="1" vertex="1">
          <mxGeometry x="780" y="320" width="160" height="40" as="geometry" />
        </mxCell>
        <mxCell id="7EEdeznbNVHkcVCXxvmR-44" value="" style="rounded=0;whiteSpace=wrap;html=1;fillColor=#b0e3e6;strokeColor=#0e8088;" parent="1" vertex="1">
          <mxGeometry x="940" y="320" width="160" height="40" as="geometry" />
        </mxCell>
        <mxCell id="7EEdeznbNVHkcVCXxvmR-45" value="" style="rounded=0;whiteSpace=wrap;html=1;fillColor=#e1d5e7;strokeColor=#9673a6;" parent="1" vertex="1">
          <mxGeometry x="1100" y="160" width="40" height="40" as="geometry" />
        </mxCell>
        <mxCell id="7EEdeznbNVHkcVCXxvmR-46" value="" style="rounded=0;whiteSpace=wrap;html=1;fillColor=#e1d5e7;strokeColor=#9673a6;" parent="1" vertex="1">
          <mxGeometry x="1140" y="160" width="40" height="40" as="geometry" />
        </mxCell>
        <mxCell id="7EEdeznbNVHkcVCXxvmR-47" value="" style="rounded=0;whiteSpace=wrap;html=1;fillColor=#e1d5e7;strokeColor=#9673a6;" parent="1" vertex="1">
          <mxGeometry x="1180" y="160" width="40" height="40" as="geometry" />
        </mxCell>
        <mxCell id="7EEdeznbNVHkcVCXxvmR-48" value="" style="rounded=0;whiteSpace=wrap;html=1;fillColor=#e1d5e7;strokeColor=#9673a6;" parent="1" vertex="1">
          <mxGeometry x="1220" y="160" width="40" height="40" as="geometry" />
        </mxCell>
        <mxCell id="7EEdeznbNVHkcVCXxvmR-49" value="" style="rounded=0;whiteSpace=wrap;html=1;fillColor=#dae8fc;strokeColor=#6c8ebf;" parent="1" vertex="1">
          <mxGeometry x="1100" y="240" width="80" height="40" as="geometry" />
        </mxCell>
        <mxCell id="7EEdeznbNVHkcVCXxvmR-50" value="" style="rounded=0;whiteSpace=wrap;html=1;fillColor=#dae8fc;strokeColor=#6c8ebf;" parent="1" vertex="1">
          <mxGeometry x="1180" y="240" width="80" height="40" as="geometry" />
        </mxCell>
        <mxCell id="7EEdeznbNVHkcVCXxvmR-51" value="" style="rounded=0;whiteSpace=wrap;html=1;fillColor=#b0e3e6;strokeColor=#0e8088;" parent="1" vertex="1">
          <mxGeometry x="1100" y="320" width="160" height="40" as="geometry" />
        </mxCell>
        <mxCell id="7EEdeznbNVHkcVCXxvmR-52" value="" style="rounded=0;whiteSpace=wrap;html=1;fillColor=#d5e8d4;strokeColor=#82b366;" parent="1" vertex="1">
          <mxGeometry x="140" y="400" width="320" height="40" as="geometry" />
        </mxCell>
        <mxCell id="7EEdeznbNVHkcVCXxvmR-54" value="" style="rounded=0;whiteSpace=wrap;html=1;fillColor=#d5e8d4;strokeColor=#82b366;" parent="1" vertex="1">
          <mxGeometry x="460" y="400" width="320" height="40" as="geometry" />
        </mxCell>
        <mxCell id="7EEdeznbNVHkcVCXxvmR-55" value="" style="rounded=0;whiteSpace=wrap;html=1;fillColor=#d5e8d4;strokeColor=#82b366;" parent="1" vertex="1">
          <mxGeometry x="780" y="400" width="320" height="40" as="geometry" />
        </mxCell>
        <mxCell id="7EEdeznbNVHkcVCXxvmR-105" style="edgeStyle=orthogonalEdgeStyle;rounded=0;orthogonalLoop=1;jettySize=auto;html=1;entryX=0.5;entryY=0;entryDx=0;entryDy=0;" parent="1" source="7EEdeznbNVHkcVCXxvmR-56" target="7EEdeznbNVHkcVCXxvmR-104" edge="1">
          <mxGeometry relative="1" as="geometry" />
        </mxCell>
        <mxCell id="7EEdeznbNVHkcVCXxvmR-56" value="" style="rounded=0;whiteSpace=wrap;html=1;fillColor=#d5e8d4;strokeColor=#82b366;" parent="1" vertex="1">
          <mxGeometry x="1100" y="400" width="320" height="40" as="geometry" />
        </mxCell>
        <mxCell id="7EEdeznbNVHkcVCXxvmR-106" style="edgeStyle=orthogonalEdgeStyle;rounded=0;orthogonalLoop=1;jettySize=auto;html=1;exitX=1;exitY=0.5;exitDx=0;exitDy=0;" parent="1" source="7EEdeznbNVHkcVCXxvmR-57" edge="1">
          <mxGeometry relative="1" as="geometry">
            <mxPoint x="1509.9999999999995" y="480.0000000000002" as="targetPoint" />
          </mxGeometry>
        </mxCell>
        <mxCell id="7EEdeznbNVHkcVCXxvmR-57" value="" style="rounded=0;whiteSpace=wrap;html=1;fillColor=#b0e3e6;strokeColor=#0e8088;" parent="1" vertex="1">
          <mxGeometry x="1260" y="320" width="160" height="40" as="geometry" />
        </mxCell>
        <mxCell id="7EEdeznbNVHkcVCXxvmR-58" value="" style="rounded=0;whiteSpace=wrap;html=1;fillColor=#dae8fc;strokeColor=#6c8ebf;" parent="1" vertex="1">
          <mxGeometry x="1260" y="240" width="80" height="40" as="geometry" />
        </mxCell>
        <mxCell id="7EEdeznbNVHkcVCXxvmR-107" style="edgeStyle=orthogonalEdgeStyle;rounded=0;orthogonalLoop=1;jettySize=auto;html=1;exitX=1;exitY=0.5;exitDx=0;exitDy=0;entryX=0.5;entryY=0;entryDx=0;entryDy=0;" parent="1" source="7EEdeznbNVHkcVCXxvmR-59" target="7EEdeznbNVHkcVCXxvmR-104" edge="1">
          <mxGeometry relative="1" as="geometry" />
        </mxCell>
        <mxCell id="7EEdeznbNVHkcVCXxvmR-59" value="" style="rounded=0;whiteSpace=wrap;html=1;fillColor=#dae8fc;strokeColor=#6c8ebf;" parent="1" vertex="1">
          <mxGeometry x="1340" y="240" width="80" height="40" as="geometry" />
        </mxCell>
        <mxCell id="7EEdeznbNVHkcVCXxvmR-60" value="" style="rounded=0;whiteSpace=wrap;html=1;fillColor=#e1d5e7;strokeColor=#9673a6;" parent="1" vertex="1">
          <mxGeometry x="1260" y="160" width="40" height="40" as="geometry" />
        </mxCell>
        <mxCell id="7EEdeznbNVHkcVCXxvmR-61" value="" style="rounded=0;whiteSpace=wrap;html=1;fillColor=#e1d5e7;strokeColor=#9673a6;" parent="1" vertex="1">
          <mxGeometry x="1300" y="160" width="40" height="40" as="geometry" />
        </mxCell>
        <mxCell id="7EEdeznbNVHkcVCXxvmR-62" value="" style="rounded=0;whiteSpace=wrap;html=1;fillColor=#e1d5e7;strokeColor=#9673a6;" parent="1" vertex="1">
          <mxGeometry x="1340" y="160" width="40" height="40" as="geometry" />
        </mxCell>
        <mxCell id="7EEdeznbNVHkcVCXxvmR-108" style="edgeStyle=orthogonalEdgeStyle;rounded=0;orthogonalLoop=1;jettySize=auto;html=1;" parent="1" source="7EEdeznbNVHkcVCXxvmR-63" target="7EEdeznbNVHkcVCXxvmR-104" edge="1">
          <mxGeometry relative="1" as="geometry" />
        </mxCell>
        <mxCell id="7EEdeznbNVHkcVCXxvmR-63" value="" style="rounded=0;whiteSpace=wrap;html=1;fillColor=#e1d5e7;strokeColor=#9673a6;" parent="1" vertex="1">
          <mxGeometry x="1380" y="160" width="40" height="40" as="geometry" />
        </mxCell>
        <mxCell id="7EEdeznbNVHkcVCXxvmR-65" value="" style="ellipse;whiteSpace=wrap;html=1;aspect=fixed;fillColor=#fad7ac;strokeColor=#b46504;" parent="1" vertex="1">
          <mxGeometry x="710" y="170" width="20" height="20" as="geometry" />
        </mxCell>
        <mxCell id="7EEdeznbNVHkcVCXxvmR-66" value="" style="ellipse;whiteSpace=wrap;html=1;aspect=fixed;fillColor=#fad7ac;strokeColor=#b46504;" parent="1" vertex="1">
          <mxGeometry x="750" y="170" width="20" height="20" as="geometry" />
        </mxCell>
        <mxCell id="7EEdeznbNVHkcVCXxvmR-67" value="" style="ellipse;whiteSpace=wrap;html=1;aspect=fixed;fillColor=#fad7ac;strokeColor=#b46504;" parent="1" vertex="1">
          <mxGeometry x="790" y="170" width="20" height="20" as="geometry" />
        </mxCell>
        <mxCell id="7EEdeznbNVHkcVCXxvmR-68" value="" style="ellipse;whiteSpace=wrap;html=1;aspect=fixed;fillColor=#fad7ac;strokeColor=#b46504;" parent="1" vertex="1">
          <mxGeometry x="830" y="170" width="20" height="20" as="geometry" />
        </mxCell>
        <mxCell id="7EEdeznbNVHkcVCXxvmR-69" value="" style="ellipse;whiteSpace=wrap;html=1;aspect=fixed;fillColor=#fad7ac;strokeColor=#b46504;" parent="1" vertex="1">
          <mxGeometry x="630" y="170" width="20" height="20" as="geometry" />
        </mxCell>
        <mxCell id="7EEdeznbNVHkcVCXxvmR-70" value="" style="ellipse;whiteSpace=wrap;html=1;aspect=fixed;fillColor=#fad7ac;strokeColor=#b46504;" parent="1" vertex="1">
          <mxGeometry x="590" y="170" width="20" height="20" as="geometry" />
        </mxCell>
        <mxCell id="7EEdeznbNVHkcVCXxvmR-71" value="" style="ellipse;whiteSpace=wrap;html=1;aspect=fixed;fillColor=#fad7ac;strokeColor=#b46504;" parent="1" vertex="1">
          <mxGeometry x="550" y="170" width="20" height="20" as="geometry" />
        </mxCell>
        <mxCell id="7EEdeznbNVHkcVCXxvmR-72" value="" style="ellipse;whiteSpace=wrap;html=1;aspect=fixed;fillColor=#fad7ac;strokeColor=#b46504;" parent="1" vertex="1">
          <mxGeometry x="510" y="170" width="20" height="20" as="geometry" />
        </mxCell>
        <mxCell id="7EEdeznbNVHkcVCXxvmR-73" value="" style="endArrow=none;dashed=1;html=1;rounded=0;strokeWidth=3;" parent="1" source="7EEdeznbNVHkcVCXxvmR-74" edge="1">
          <mxGeometry width="50" height="50" relative="1" as="geometry">
            <mxPoint x="680" y="520" as="sourcePoint" />
            <mxPoint x="680" y="40" as="targetPoint" />
          </mxGeometry>
        </mxCell>
        <mxCell id="7EEdeznbNVHkcVCXxvmR-64" value="" style="ellipse;whiteSpace=wrap;html=1;aspect=fixed;fillColor=#1ba1e2;strokeColor=#006EAF;fontColor=#ffffff;" parent="1" vertex="1">
          <mxGeometry x="670" y="170" width="20" height="20" as="geometry" />
        </mxCell>
        <mxCell id="7EEdeznbNVHkcVCXxvmR-76" value="" style="endArrow=none;dashed=1;html=1;rounded=0;strokeWidth=3;" parent="1" source="7EEdeznbNVHkcVCXxvmR-77" target="7EEdeznbNVHkcVCXxvmR-75" edge="1">
          <mxGeometry width="50" height="50" relative="1" as="geometry">
            <mxPoint x="680" y="520" as="sourcePoint" />
            <mxPoint x="680" y="40" as="targetPoint" />
          </mxGeometry>
        </mxCell>
        <mxCell id="7EEdeznbNVHkcVCXxvmR-75" value="" style="ellipse;whiteSpace=wrap;html=1;aspect=fixed;fillColor=#1ba1e2;strokeColor=#006EAF;fontColor=#ffffff;" parent="1" vertex="1">
          <mxGeometry x="670" y="330" width="20" height="20" as="geometry" />
        </mxCell>
        <mxCell id="7EEdeznbNVHkcVCXxvmR-78" value="" style="endArrow=none;dashed=1;html=1;rounded=0;strokeWidth=3;" parent="1" target="7EEdeznbNVHkcVCXxvmR-77" edge="1">
          <mxGeometry width="50" height="50" relative="1" as="geometry">
            <mxPoint x="680" y="520" as="sourcePoint" />
            <mxPoint x="680" y="350" as="targetPoint" />
          </mxGeometry>
        </mxCell>
        <mxCell id="7EEdeznbNVHkcVCXxvmR-77" value="" style="ellipse;whiteSpace=wrap;html=1;aspect=fixed;fillColor=#1ba1e2;strokeColor=#006EAF;fontColor=#ffffff;" parent="1" vertex="1">
          <mxGeometry x="670" y="410" width="20" height="20" as="geometry" />
        </mxCell>
        <mxCell id="7EEdeznbNVHkcVCXxvmR-79" value="" style="endArrow=none;dashed=1;html=1;rounded=0;strokeWidth=3;" parent="1" source="7EEdeznbNVHkcVCXxvmR-75" target="7EEdeznbNVHkcVCXxvmR-74" edge="1">
          <mxGeometry width="50" height="50" relative="1" as="geometry">
            <mxPoint x="680" y="330" as="sourcePoint" />
            <mxPoint x="680" y="40" as="targetPoint" />
          </mxGeometry>
        </mxCell>
        <mxCell id="7EEdeznbNVHkcVCXxvmR-74" value="" style="ellipse;whiteSpace=wrap;html=1;aspect=fixed;fillColor=#1ba1e2;strokeColor=#006EAF;fontColor=#ffffff;" parent="1" vertex="1">
          <mxGeometry x="670" y="250" width="20" height="20" as="geometry" />
        </mxCell>
        <mxCell id="7EEdeznbNVHkcVCXxvmR-80" value="" style="ellipse;whiteSpace=wrap;html=1;aspect=fixed;fillColor=#fad7ac;strokeColor=#b46504;" parent="1" vertex="1">
          <mxGeometry x="570" y="250" width="20" height="20" as="geometry" />
        </mxCell>
        <mxCell id="7EEdeznbNVHkcVCXxvmR-81" value="" style="ellipse;whiteSpace=wrap;html=1;aspect=fixed;fillColor=#fad7ac;strokeColor=#b46504;" parent="1" vertex="1">
          <mxGeometry x="490" y="250" width="20" height="20" as="geometry" />
        </mxCell>
        <mxCell id="7EEdeznbNVHkcVCXxvmR-82" value="" style="ellipse;whiteSpace=wrap;html=1;aspect=fixed;fillColor=#fad7ac;strokeColor=#b46504;" parent="1" vertex="1">
          <mxGeometry x="410" y="250" width="20" height="20" as="geometry" />
        </mxCell>
        <mxCell id="7EEdeznbNVHkcVCXxvmR-83" value="" style="ellipse;whiteSpace=wrap;html=1;aspect=fixed;fillColor=#fad7ac;strokeColor=#b46504;" parent="1" vertex="1">
          <mxGeometry x="330" y="250" width="20" height="20" as="geometry" />
        </mxCell>
        <mxCell id="7EEdeznbNVHkcVCXxvmR-84" value="" style="ellipse;whiteSpace=wrap;html=1;aspect=fixed;fillColor=#fad7ac;strokeColor=#b46504;" parent="1" vertex="1">
          <mxGeometry x="730" y="250" width="20" height="20" as="geometry" />
        </mxCell>
        <mxCell id="7EEdeznbNVHkcVCXxvmR-85" value="V&lt;sub&gt;corr, 1&lt;/sub&gt;" style="text;html=1;align=center;verticalAlign=middle;resizable=0;points=[];autosize=1;strokeColor=none;fillColor=none;fontFamily=Times New Roman;fontSize=25;" parent="1" vertex="1">
          <mxGeometry x="25" y="150" width="100" height="50" as="geometry" />
        </mxCell>
        <mxCell id="7EEdeznbNVHkcVCXxvmR-86" value="V&lt;sub&gt;corr, 2&lt;/sub&gt;" style="text;html=1;align=center;verticalAlign=middle;resizable=0;points=[];autosize=1;strokeColor=none;fillColor=none;fontFamily=Times New Roman;fontSize=25;" parent="1" vertex="1">
          <mxGeometry x="25" y="230" width="100" height="50" as="geometry" />
        </mxCell>
        <mxCell id="7EEdeznbNVHkcVCXxvmR-87" value="V&lt;sub&gt;corr, 3&lt;/sub&gt;" style="text;html=1;align=center;verticalAlign=middle;resizable=0;points=[];autosize=1;strokeColor=none;fillColor=none;fontFamily=Times New Roman;fontSize=25;" parent="1" vertex="1">
          <mxGeometry x="25" y="310" width="100" height="50" as="geometry" />
        </mxCell>
        <mxCell id="7EEdeznbNVHkcVCXxvmR-88" value="V&lt;sub&gt;corr, 4&lt;/sub&gt;" style="text;html=1;align=center;verticalAlign=middle;resizable=0;points=[];autosize=1;strokeColor=none;fillColor=none;fontFamily=Times New Roman;fontSize=25;" parent="1" vertex="1">
          <mxGeometry x="25" y="390" width="100" height="50" as="geometry" />
        </mxCell>
        <mxCell id="7EEdeznbNVHkcVCXxvmR-89" value="" style="ellipse;whiteSpace=wrap;html=1;aspect=fixed;fillColor=#fad7ac;strokeColor=#b46504;" parent="1" vertex="1">
          <mxGeometry x="810" y="250" width="20" height="20" as="geometry" />
        </mxCell>
        <mxCell id="7EEdeznbNVHkcVCXxvmR-90" value="" style="ellipse;whiteSpace=wrap;html=1;aspect=fixed;fillColor=#fad7ac;strokeColor=#b46504;" parent="1" vertex="1">
          <mxGeometry x="890" y="250" width="20" height="20" as="geometry" />
        </mxCell>
        <mxCell id="7EEdeznbNVHkcVCXxvmR-91" value="" style="ellipse;whiteSpace=wrap;html=1;aspect=fixed;fillColor=#fad7ac;strokeColor=#b46504;" parent="1" vertex="1">
          <mxGeometry x="970" y="250" width="20" height="20" as="geometry" />
        </mxCell>
        <mxCell id="7EEdeznbNVHkcVCXxvmR-92" value="" style="ellipse;whiteSpace=wrap;html=1;aspect=fixed;fillColor=#fad7ac;strokeColor=#b46504;" parent="1" vertex="1">
          <mxGeometry x="530" y="330" width="20" height="20" as="geometry" />
        </mxCell>
        <mxCell id="7EEdeznbNVHkcVCXxvmR-93" value="" style="ellipse;whiteSpace=wrap;html=1;aspect=fixed;fillColor=#fad7ac;strokeColor=#b46504;" parent="1" vertex="1">
          <mxGeometry x="370" y="330" width="20" height="20" as="geometry" />
        </mxCell>
        <mxCell id="7EEdeznbNVHkcVCXxvmR-94" value="" style="ellipse;whiteSpace=wrap;html=1;aspect=fixed;fillColor=#fad7ac;strokeColor=#b46504;" parent="1" vertex="1">
          <mxGeometry x="210" y="330" width="20" height="20" as="geometry" />
        </mxCell>
        <mxCell id="7EEdeznbNVHkcVCXxvmR-95" value="" style="ellipse;whiteSpace=wrap;html=1;aspect=fixed;fillColor=#fad7ac;strokeColor=#b46504;" parent="1" vertex="1">
          <mxGeometry x="850" y="330" width="20" height="20" as="geometry" />
        </mxCell>
        <mxCell id="7EEdeznbNVHkcVCXxvmR-96" value="" style="ellipse;whiteSpace=wrap;html=1;aspect=fixed;fillColor=#fad7ac;strokeColor=#b46504;" parent="1" vertex="1">
          <mxGeometry x="1010" y="330" width="20" height="20" as="geometry" />
        </mxCell>
        <mxCell id="7EEdeznbNVHkcVCXxvmR-97" value="" style="ellipse;whiteSpace=wrap;html=1;aspect=fixed;fillColor=#fad7ac;strokeColor=#b46504;" parent="1" vertex="1">
          <mxGeometry x="1170" y="330" width="20" height="20" as="geometry" />
        </mxCell>
        <mxCell id="7EEdeznbNVHkcVCXxvmR-98" value="" style="ellipse;whiteSpace=wrap;html=1;aspect=fixed;fillColor=#fad7ac;strokeColor=#b46504;" parent="1" vertex="1">
          <mxGeometry x="1330" y="330" width="20" height="20" as="geometry" />
        </mxCell>
        <mxCell id="7EEdeznbNVHkcVCXxvmR-99" value="" style="ellipse;whiteSpace=wrap;html=1;aspect=fixed;fillColor=#fad7ac;strokeColor=#b46504;" parent="1" vertex="1">
          <mxGeometry x="290" y="410" width="20" height="20" as="geometry" />
        </mxCell>
        <mxCell id="7EEdeznbNVHkcVCXxvmR-100" value="" style="ellipse;whiteSpace=wrap;html=1;aspect=fixed;fillColor=#fad7ac;strokeColor=#b46504;" parent="1" vertex="1">
          <mxGeometry x="1250" y="410" width="20" height="20" as="geometry" />
        </mxCell>
        <mxCell id="7EEdeznbNVHkcVCXxvmR-101" value="" style="ellipse;whiteSpace=wrap;html=1;aspect=fixed;fillColor=#fad7ac;strokeColor=#b46504;" parent="1" vertex="1">
          <mxGeometry x="930" y="410" width="20" height="20" as="geometry" />
        </mxCell>
        <mxCell id="7EEdeznbNVHkcVCXxvmR-109" style="edgeStyle=orthogonalEdgeStyle;rounded=0;orthogonalLoop=1;jettySize=auto;html=1;exitX=0.5;exitY=1;exitDx=0;exitDy=0;" parent="1" source="7EEdeznbNVHkcVCXxvmR-104" edge="1">
          <mxGeometry relative="1" as="geometry">
            <mxPoint x="1510.636363636363" y="579.9999999999998" as="targetPoint" />
          </mxGeometry>
        </mxCell>
        <mxCell id="7EEdeznbNVHkcVCXxvmR-104" value="特征拼接" style="rounded=1;whiteSpace=wrap;html=1;fontFamily=Times New Roman;fontSize=25;fillColor=#f5f5f5;fontColor=#333333;strokeColor=#666666;" parent="1" vertex="1">
          <mxGeometry x="1450" y="480" width="120" height="60" as="geometry" />
        </mxCell>
        <mxCell id="7EEdeznbNVHkcVCXxvmR-110" value="当前逆深度索引估计值 &lt;i&gt;n&lt;/i&gt;" style="text;html=1;align=center;verticalAlign=middle;resizable=0;points=[];autosize=1;strokeColor=none;fillColor=none;fontFamily=Times New Roman;fontSize=25;fontStyle=0" parent="1" vertex="1">
          <mxGeometry x="535" y="520" width="290" height="40" as="geometry" />
        </mxCell>
      </root>
    </mxGraphModel>
  </diagram>
</mxfile>
